<svg xmlns="http://www.w3.org/2000/svg" width="80" height="80" viewBox="0 0 80 80" fill="none">
  <path d="M40 10C23.4301 10 10 23.4323 10 40C10 56.5677 23.4323 70 40 70C56.5677 70 70 56.5677 70 40C70 23.4323 56.5677 10 40 10ZM18.4881 34.5597C18.0863 33.285 18.0325 31.8261 18.3265 30.2327C18.8382 27.6158 20.1646 24.9473 22.162 22.5166L22.1912 22.4807C26.8078 16.3784 34.8403 12.7358 43.6785 12.7358C45.5009 12.7358 47.2941 12.8907 49.0402 13.1959C42.5271 13.7997 35.8121 16.6679 29.0634 21.7311C28.7761 21.9466 28.5921 22.272 28.5584 22.6289C28.5247 22.9857 28.6414 23.3426 28.8838 23.6096C31.0855 26.038 33.2895 28.6931 35.8143 31.9675C36.234 32.5129 37.0038 32.6274 37.5694 32.2256C42.6595 28.5786 47.0764 25.8764 51.3541 23.8049C51.1633 25.9976 48.23 29.3955 45.1642 31.9653C40.2626 35.9782 34.36 40.1504 27.7392 40.6845L27.4811 40.707C26.5071 40.7519 25.459 40.6374 24.3705 40.3681C21.7513 39.697 19.4419 37.41 18.4926 34.562L18.4881 34.5597ZM39.9798 65.9422C33.9695 65.9422 28.4394 63.8909 24.0473 60.4526C24.8867 60.5289 25.7709 60.5671 26.7337 60.5671C27.5395 60.5671 28.4013 60.5401 29.3282 60.4885C34.8044 60.089 40.4646 58.4574 45.6984 55.7754C50.9905 53.062 55.6026 49.3925 59.0432 45.153C61.274 42.3296 63.947 37.9913 64.7056 32.7329C64.7528 32.7979 64.7999 32.8653 64.847 32.9326C65.4979 35.2016 65.848 37.5986 65.848 40.0786C65.848 54.3637 54.2672 65.9445 39.982 65.9445L39.9798 65.9422Z" fill="url(#g)"/>
  <defs>
    <radialGradient id="g" cx="0" cy="0" r="1" gradientUnits="userSpaceOnUse" gradientTransform="translate(49.525 23.0149) scale(55.5181)">
      <stop offset="0.08" stop-color="#7CB5F2"/>
      <stop offset="0.17" stop-color="#78B9EC"/>
      <stop offset="0.28" stop-color="#70C6DD"/>
      <stop offset="0.38" stop-color="#64D8C7"/>
      <stop offset="0.44" stop-color="#5FD7C2"/>
      <stop offset="0.51" stop-color="#54D5B3"/>
      <stop offset="0.58" stop-color="#40D39C"/>
      <stop offset="0.66" stop-color="#26D07C"/>
    </radialGradient>
  </defs>
</svg>
