<svg preserveAspectRatio="none" width="100%" height="100%" overflow="visible" style="display: block;" viewBox="0 0 24 24" fill="none" xmlns="http://www.w3.org/2000/svg">
<g id="Icon">
<path id="Vector" d="M11.24 4.12V5.24H7.24V8.24H3.24V20.76H11V19.24H4.76V9.76H19.24V11H20.76V8.24H16.76V5.24H12.76V3H11.24V4.12ZM15.24 7.5V8.24H8.76V6.76H15.24V7.5ZM7.249 12.51L7.26 13.5H8.74L8.751 12.51L8.761 11.52H7.239L7.249 12.51ZM11.249 12.51L11.26 13.5H12.74L12.751 12.51L12.761 11.52H11.239L11.249 12.51ZM14.57 13.29C14.548 13.317 14.022 14.222 13.401 15.3C13.0021 15.9942 12.6018 16.6875 12.2 17.38L12.129 17.5L13.355 19.62L14.581 21.74H19.499L20.691 19.68L21.916 17.56C21.941 17.517 21.604 16.901 20.725 15.38L19.499 13.26L17.055 13.25C15.129 13.242 14.602 13.25 14.57 13.29ZM19.416 16.12C19.847 16.867 20.2 17.488 20.2 17.499C20.2 17.51 19.847 18.13 19.415 18.879L18.629 20.24H15.451L14.666 18.881C14.398 18.4238 14.136 17.9631 13.88 17.499C13.88 17.487 14.233 16.866 14.664 16.118L15.449 14.76H18.631L19.416 16.12ZM7.249 16.51L7.26 17.5H8.74L8.751 16.51L8.761 15.52H7.239L7.249 16.51ZM16.789 16.282C16.438 16.34 16.098 16.604 15.913 16.96C15.836 17.11 15.82 17.2 15.82 17.5C15.821 17.812 15.835 17.887 15.927 18.063C16.038 18.273 16.274 18.514 16.468 18.613C16.946 18.859 17.605 18.738 17.954 18.34C18.2 18.061 18.259 17.896 18.259 17.5C18.259 17.188 18.245 17.113 18.153 16.937C17.891 16.44 17.361 16.185 16.789 16.282Z" fill="#8B8E9B"/>
</g>
</svg>
