<svg preserveAspectRatio="none" width="100%" height="100%" overflow="visible" style="display: block;" viewBox="0 0 24 24" fill="none" xmlns="http://www.w3.org/2000/svg">
<g id="Icon">
<path id="Vector" d="M5.84 4.283C4.855 4.388 3.919 5.003 3.524 5.804C3.225 6.41 3.241 6.03 3.241 12.5L3.24 18.301L3.97 19.03L4.701 19.76H19.301L20.03 19.03L20.76 18.299V8.699L20.03 7.97L19.299 7.24H17.76V5.699L17.03 4.97L16.299 4.24L11.22 4.245C8.426 4.248 6.005 4.265 5.84 4.283ZM15.969 6.029L16.24 6.298V7.24H4.76V6.962C4.76 6.809 4.782 6.633 4.808 6.572C4.946 6.252 5.29 5.972 5.71 5.838C5.928 5.768 6.2 5.764 10.819 5.762L15.698 5.76L15.969 6.029ZM18.969 9.029L19.24 9.298V17.698L18.971 17.969L18.702 18.24H5.302L5.031 17.971L4.76 17.702V8.76H18.698L18.969 9.029ZM16.277 12.282C15.501 12.408 15.036 13.287 15.367 14.003C15.4644 14.2221 15.6233 14.4083 15.8244 14.5389C16.0255 14.6696 16.2602 14.7391 16.5 14.7391C16.7398 14.7391 16.9745 14.6696 17.1756 14.5389C17.3767 14.4083 17.5355 14.2221 17.633 14.003C17.713 13.831 17.737 13.716 17.737 13.5C17.737 12.725 17.053 12.155 16.277 12.282Z" fill="#8B8E9B"/>
</g>
</svg>
