<svg preserveAspectRatio="none" width="100%" height="100%" overflow="visible" style="display: block;" viewBox="0 0 24 24" fill="none" xmlns="http://www.w3.org/2000/svg">
<g id="Icon">
<path id="Vector" fill-rule="evenodd" clip-rule="evenodd" d="M7.47 4.47L6.24 5.7V12.761L4.38 15.24C3.75342 16.0684 3.1334 16.9018 2.52 17.74C2.52 17.751 6.786 17.76 12 17.76C17.214 17.76 21.48 17.751 21.48 17.74C21.48 17.729 20.643 16.604 19.62 15.24L17.76 12.761V5.7L16.53 4.47L15.3 3.24H8.7L7.47 4.47ZM15.47 5.53L16.24 6.299V13.241L17.358 14.73L18.475 16.22L15.238 16.23C13.457 16.236 10.543 16.236 8.762 16.23L5.525 16.22L6.642 14.73L7.76 13.241V6.301L8.53 5.53L9.299 4.76H14.699L15.47 5.53ZM11 20V20.76H13V19.24H11V20Z" fill="#8B8E9B"/>
</g>
</svg>
