<svg preserveAspectRatio="none" width="100%" height="100%" overflow="visible" style="display: block;" viewBox="0 0 24 24" fill="none" xmlns="http://www.w3.org/2000/svg">
<g id="Icon">
<path id="Vector" d="M4.701 3.285C4.367 3.333 4.062 3.498 3.769 3.787C3.57102 3.9744 3.42256 4.20792 3.33688 4.46671C3.25119 4.7255 3.23097 5.00148 3.278 5.27C3.347 5.671 3.482 5.93 3.776 6.224C4.07 6.518 4.329 6.653 4.73 6.722C5.056 6.778 5.429 6.726 5.753 6.579C6.032 6.452 6.452 6.032 6.579 5.753C6.874 5.102 6.768 4.365 6.304 3.851C5.887 3.391 5.329 3.193 4.701 3.285ZM11.701 3.285C11.367 3.333 11.062 3.498 10.769 3.787C10.571 3.9744 10.4226 4.20792 10.3369 4.46671C10.2512 4.7255 10.231 5.00148 10.278 5.27C10.347 5.671 10.482 5.93 10.776 6.224C11.07 6.518 11.329 6.653 11.73 6.722C12.056 6.778 12.429 6.726 12.753 6.579C13.032 6.452 13.452 6.032 13.579 5.753C13.874 5.102 13.768 4.365 13.304 3.851C12.887 3.391 12.329 3.193 11.701 3.285ZM18.701 3.285C18.367 3.333 18.062 3.498 17.769 3.787C17.571 3.9744 17.4226 4.20792 17.3369 4.46671C17.2512 4.7255 17.231 5.00148 17.278 5.27C17.347 5.671 17.482 5.93 17.776 6.224C18.07 6.518 18.329 6.653 18.73 6.722C19.056 6.778 19.429 6.726 19.753 6.579C20.032 6.452 20.452 6.032 20.579 5.753C20.874 5.102 20.768 4.365 20.304 3.851C19.887 3.391 19.329 3.193 18.701 3.285ZM4.701 10.285C4.367 10.333 4.062 10.498 3.769 10.787C3.57102 10.9744 3.42256 11.2079 3.33688 11.4667C3.25119 11.7255 3.23097 12.0015 3.278 12.27C3.347 12.671 3.482 12.93 3.776 13.224C4.07 13.518 4.329 13.653 4.73 13.722C5.056 13.778 5.429 13.726 5.753 13.579C6.032 13.452 6.452 13.032 6.579 12.753C6.874 12.102 6.768 11.365 6.304 10.851C5.887 10.391 5.329 10.193 4.701 10.285ZM11.701 10.285C11.367 10.333 11.062 10.498 10.769 10.787C10.571 10.9744 10.4226 11.2079 10.3369 11.4667C10.2512 11.7255 10.231 12.0015 10.278 12.27C10.347 12.671 10.482 12.93 10.776 13.224C11.07 13.518 11.329 13.653 11.73 13.722C12.056 13.778 12.429 13.726 12.753 13.579C13.032 13.452 13.452 13.032 13.579 12.753C13.874 12.102 13.768 11.365 13.304 10.851C12.887 10.391 12.329 10.193 11.701 10.285ZM18.701 10.285C18.367 10.333 18.062 10.498 17.769 10.787C17.571 10.9744 17.4226 11.2079 17.3369 11.4667C17.2512 11.7255 17.231 12.0015 17.278 12.27C17.347 12.671 17.482 12.93 17.776 13.224C18.07 13.518 18.329 13.653 18.73 13.722C19.056 13.778 19.429 13.726 19.753 13.579C20.032 13.452 20.452 13.032 20.579 12.753C20.874 12.102 20.768 11.365 20.304 10.851C19.887 10.391 19.329 10.193 18.701 10.285ZM4.701 17.285C4.367 17.333 4.062 17.498 3.769 17.787C3.57102 17.9744 3.42256 18.2079 3.33688 18.4667C3.25119 18.7255 3.23097 19.0015 3.278 19.27C3.347 19.671 3.482 19.93 3.776 20.224C4.07 20.518 4.329 20.653 4.73 20.722C5.056 20.778 5.429 20.726 5.753 20.579C6.032 20.452 6.452 20.032 6.579 19.753C6.874 19.102 6.768 18.365 6.304 17.851C5.887 17.391 5.329 17.193 4.701 17.285ZM11.701 17.285C11.367 17.333 11.062 17.498 10.769 17.787C10.571 17.9744 10.4226 18.2079 10.3369 18.4667C10.2512 18.7255 10.231 19.0015 10.278 19.27C10.347 19.671 10.482 19.93 10.776 20.224C11.07 20.518 11.329 20.653 11.73 20.722C12.056 20.778 12.429 20.726 12.753 20.579C13.032 20.452 13.452 20.032 13.579 19.753C13.874 19.102 13.768 18.365 13.304 17.851C12.887 17.391 12.329 17.193 11.701 17.285ZM18.701 17.285C18.367 17.333 18.062 17.498 17.769 17.787C17.571 17.9744 17.4226 18.2079 17.3369 18.4667C17.2512 18.7255 17.231 19.0015 17.278 19.27C17.347 19.671 17.482 19.93 17.776 20.224C18.07 20.518 18.329 20.653 18.73 20.722C19.056 20.778 19.429 20.726 19.753 20.579C20.032 20.452 20.452 20.032 20.579 19.753C20.874 19.102 20.768 18.365 20.304 17.851C19.887 17.391 19.329 17.193 18.701 17.285Z" fill="#8B8E9B"/>
</g>
</svg>
