<svg preserveAspectRatio="none" width="100%" height="100%" overflow="visible" style="display: block;" viewBox="0 0 24 24" fill="none" xmlns="http://www.w3.org/2000/svg">
<g id="Icon">
<path id="Vector" fill-rule="evenodd" clip-rule="evenodd" d="M4.24 7.02V9.8H5.76V5.76H8.78L10.28 6.76L11.78 7.76H18.24V10.239L15.37 10.25L12.5 10.26V11.74L16.774 11.75C20.165 11.758 21.045 11.771 21.03 11.81C21.021 11.838 20.654 13.296 20.217 15.05L19.421 18.24H15V19.76H20.58L21.756 15.05C22.403 12.459 22.941 10.318 22.951 10.29C22.965 10.251 22.631 10.24 21.364 10.24H19.76V6.24H12.227L10.712 5.24L9.198 4.24H4.24V7.02ZM7.634 11.083C6.322 11.223 5.196 12.249 4.842 13.625C4.801 13.783 4.789 13.793 4.53 13.88C3.992 14.06 3.612 14.309 3.174 14.77C2.823 15.14 2.601 15.508 2.442 15.985C1.99 17.341 2.339 18.742 3.367 19.697C3.786 20.086 4.328 20.367 4.883 20.481C5.235 20.554 5.441 20.559 8 20.559C11.075 20.559 11.155 20.553 11.77 20.269C13.382 19.524 14.132 17.722 13.555 15.98C13.4084 15.5259 13.1589 15.1119 12.826 14.77C12.388 14.309 12.008 14.06 11.47 13.88C11.211 13.793 11.199 13.783 11.158 13.625C11.0022 12.9795 10.6609 12.3937 10.176 11.94C9.731 11.511 9.024 11.161 8.48 11.101C8.043 11.053 7.935 11.05 7.634 11.083ZM8.704 12.719C9.227 12.976 9.636 13.549 9.719 14.14C9.741 14.294 9.759 14.603 9.759 14.827L9.76 15.234L10.351 15.247C10.924 15.26 10.95 15.264 11.204 15.389C11.988 15.775 12.413 16.76 12.18 17.652C12.041 18.186 11.663 18.666 11.206 18.89L10.94 19.02H5.06L4.794 18.89C4.45026 18.7024 4.16744 18.4203 3.979 18.077C3.76778 17.6406 3.70661 17.1467 3.805 16.672C3.915 16.153 4.326 15.62 4.796 15.389C5.05 15.264 5.076 15.26 5.649 15.247L6.24 15.234L6.241 14.827C6.242 13.99 6.396 13.505 6.789 13.095C7.169 12.699 7.538 12.552 8.091 12.575C8.388 12.588 8.483 12.61 8.704 12.719Z" fill="var(--fill-0, #787B8A)"/>
</g>
</svg>
