<svg preserveAspectRatio="none" width="100%" height="100%" overflow="visible" style="display: block;" viewBox="0 0 24 24" fill="none" xmlns="http://www.w3.org/2000/svg">
<g id="Icon">
<path id="Vector" d="M3.131 3.399C3.142 3.486 3.878 7.428 4.765 12.159L6.377 20.76H17.623L19.235 12.159C20.122 7.428 20.858 3.486 20.869 3.399L20.891 3.24H3.109L3.131 3.399ZM19.069 4.87L17.714 12.11L16.38 19.24H7.62L6.286 12.11L4.931 4.87L4.91 4.76H19.09L19.069 4.87ZM10.28 8V9.76H13.76V6.24H10.28V8ZM8.691 12.672L7.403 14.74L8.701 14.751C9.416 14.756 10.584 14.756 11.299 14.751L12.597 14.74L11.309 12.672C10.6 11.534 10.011 10.603 10 10.603C9.989 10.603 9.4 11.534 8.691 12.672ZM13.964 10.823C13.029 11.075 12.385 12.046 12.52 13.001C12.593 13.513 12.764 13.839 13.159 14.216C13.5212 14.5591 14.0011 14.7503 14.5 14.7503C14.9989 14.7503 15.4788 14.5591 15.841 14.216C16.236 13.839 16.407 13.513 16.48 13.001C16.616 12.037 15.967 11.068 15.019 10.821C14.6714 10.745 14.3113 10.7457 13.964 10.823Z" fill="var(--fill-0, #8B8E9B)"/>
</g>
</svg>
