<svg preserveAspectRatio="none" width="100%" height="100%" overflow="visible" style="display: block;" viewBox="0 0 24 24" fill="none" xmlns="http://www.w3.org/2000/svg">
<g id="Icon">
<path id="Vector" fill-rule="evenodd" clip-rule="evenodd" d="M8.26 4.241L4.108 6.582L3.636 6.847L3.798 7.141C3.887 7.304 3.96 7.455 3.96 7.478C3.96 7.504 3.824 7.52 3.6 7.52H3.24L3.241 12.23L3.242 16.94L7.404 19.28C8.80112 20.0677 10.2001 20.852 11.601 21.633C11.62 21.64 11.713 21.509 11.808 21.343C11.903 21.177 11.989 21.041 12 21.041C12.011 21.041 12.098 21.177 12.192 21.343C12.287 21.509 12.38 21.64 12.399 21.633C12.418 21.626 14.307 20.567 16.596 19.28L20.758 16.94V12L20.757 7.06L16.413 4.62C14.024 3.278 12.04 2.177 12.004 2.173C11.968 2.169 10.284 3.099 8.26 4.241ZM15.655 5.917L19.24 7.935V16.071L16.565 17.575L13.325 19.397L12.76 19.715V16.935L14.75 15.816L16.74 14.696V9.309L14.37 7.976L12 6.642L10.011 7.761C9.34396 8.13988 8.6736 8.5129 8 8.88C7.945 8.88 5.595 7.536 5.594 7.503C5.592 7.452 11.926 3.884 12.005 3.893C12.04 3.897 13.683 4.808 15.655 5.917ZM13.636 9.28L15.238 10.18L15.239 12L15.24 13.82L14.033 14.5C13.369 14.874 12.811 15.186 12.793 15.193C12.775 15.201 12.76 14.388 12.76 13.388V11.569L11.161 10.674C10.282 10.182 9.562 9.77 9.561 9.758C9.56 9.729 11.971 8.364 12.007 8.373C12.021 8.377 12.755 8.785 13.636 9.28ZM6.311 9.66L7.238 10.18L7.249 12.438L7.26 14.696L9.25 15.816L11.24 16.935V19.715L10.675 19.397L7.435 17.575L4.76 16.071V8.795L5.072 8.968C5.244 9.062 5.801 9.374 6.311 9.66ZM10.2 11.85L11.22 12.424L11.231 13.815C11.236 14.581 11.226 15.201 11.207 15.194C11.189 15.186 10.631 14.874 9.967 14.5L8.76 13.82V11.039L8.97 11.158L10.2 11.85Z" fill="var(--fill-0, #787B8A)"/>
</g>
</svg>
